<svg width="96" height="96" viewBox="0 0 80 80" xmlns="http://www.w3.org/2000/svg">
  <defs>
    <linearGradient id="medtFachGrad" x1="0" y1="0" x2="1" y2="1">
      <stop offset="0%" stop-color="#EA580C"/>
      <stop offset="100%" stop-color="#C2410C"/>
    </linearGradient>
  </defs>
  <rect width="80" height="80" rx="20" fill="url(#medtFachGrad)"/>
  <rect x="10" y="10" width="60" height="60" rx="14" fill="#FFFFFF" fill-opacity="0.06"/>
  <rect x="14" y="26" width="38" height="28" rx="5" fill="#1C0D04"/>
  <rect x="14" y="20" width="38" height="10" rx="4" fill="#FED7AA"/>
  <rect x="18" y="20" width="6" height="10" fill="#EA580C"/>
  <rect x="28" y="20" width="6" height="10" fill="#EA580C"/>
  <rect x="38" y="20" width="6" height="10" fill="#EA580C"/>
  <circle cx="33" cy="40" r="9" fill="#F97316" fill-opacity="0.2"/>
  <polygon points="30,35 30,45 40,40" fill="#FDBA74"/>
  <circle cx="58" cy="40" r="8" fill="#1C0D04" stroke="#F97316" stroke-width="2"/>
  <circle cx="58" cy="40" r="5" fill="#292524"/>
  <circle cx="58" cy="40" r="3" fill="#1C0D04"/>
  <circle cx="57" cy="39" r="1" fill="#FFFFFF" fill-opacity="0.5"/>
  <rect x="18" y="62" width="44" height="12" rx="6" fill="#7C2D12"/>
  <text x="40" y="72" font-family="'Space Grotesk', sans-serif" font-weight="800" font-size="9" fill="#FDBA74" text-anchor="middle" letter-spacing="1">MEDT</text>
</svg>
